# xmcd CD database file
#
# Track frame offsets:
#	150
#	15475
#	27245
#	36942
#	55178
#	68041
#	83378
#	100090
#	117106
#	131822
#	146711
#	170482
#	184806
#	197897
#	212774
#	229612
#
# Disc length: 3303 seconds
#
# Revision: 0
# Processed by: cddbd v1.5.2PL0 Copyright (c) Steve Scherf et al.
# Submitted via: CDex 1.51
#
DISCID=d70ce510
DTITLE=Various Artist - Ultimate Country Redneck
DYEAR=2007
DGENRE=Country
TTITLE0=David Allan Coe - Long-Haired Redneck
TTITLE1=Johnny Paycheck - Take This Job and Shove It
TTITLE2=Waylon Jennings - Good Ol' Boys (Dukes of Hazard Theme)
TTITLE3=Charlie Daniels Band - Long-Haired Country Boy
TTITLE4=Merle Haggard - The Fightin' Side of Me
TTITLE5=Trent Willmon - Beer Man
TTITLE6=Johnny Cash - A Boy Named Sue (Live)
TTITLE7=Alabama - If You're Gonna Play in Texas (You Gotta Have a Fiddle in the Band)
TTITLE8=Jerry Reed - She Got the Goldmine (I Got the Shaft)
TTITLE9=Billy Ray Cyrus - Burn Down the Trailer Park
TTITLE10=David Allan Coe - You Never Even Called Me by My Name
TTITLE11=Johnny Paycheck - I'm the Only Hell (Mama Ever Raised)
TTITLE12=Aaron Tippin - Kiss This
TTITLE13=Gibson-Miller Band - Red, White, and Blue Collar
TTITLE14=Cledus T Judd - My Cellmate Thinks I'm Sexy
TTITLE15=Montgomery Gentry - Merry Christmas From the Family
EXTD=YEAR: 2007
EXTT0=
EXTT1=
EXTT2=
EXTT3=
EXTT4=
EXTT5=
EXTT6=
EXTT7=
EXTT8=
EXTT9=
EXTT10=
EXTT11=
EXTT12=
EXTT13=
EXTT14=
EXTT15=
PLAYORDER=
